<svg width="40" height="40" viewBox="0 0 40 40" fill="none" xmlns="http://www.w3.org/2000/svg">
<path d="M30.4107 26.4608C29.1039 25.1707 27.4725 25.1707 26.174 26.4608C25.1835 27.443 24.193 28.4252 23.2191 29.424C22.9527 29.6987 22.728 29.757 22.4034 29.5738C21.7625 29.2243 21.0799 28.9413 20.464 28.5584C17.5923 26.7521 15.1868 24.4299 13.0559 21.8162C11.9988 20.5178 11.0583 19.1277 10.4007 17.5629C10.2675 17.2466 10.2925 17.0385 10.5505 16.7804C11.541 15.8232 12.5066 14.841 13.4804 13.8589C14.8372 12.4938 14.8372 10.8956 13.4721 9.52225C12.698 8.73983 11.9239 7.97405 11.1498 7.19163C10.3508 6.39257 9.56002 5.58517 8.75263 4.79443C7.44582 3.52092 5.81439 3.52092 4.51591 4.80275C3.51707 5.78494 2.55986 6.7921 1.54438 7.75764C0.603806 8.64827 0.12936 9.73866 0.0294763 11.0122C-0.128672 13.0848 0.379068 15.0408 1.0949 16.9469C2.55986 20.8923 4.79059 24.3966 7.49577 27.6095C11.1498 31.9544 15.5114 35.3921 20.6138 37.8725C22.9111 38.9879 25.2917 39.8452 27.8803 39.9867C29.6616 40.0866 31.2098 39.6371 32.45 38.2471C33.299 37.2982 34.2562 36.4325 35.1552 35.5252C36.4869 34.1768 36.4953 32.5454 35.1718 31.2136C33.5903 29.6238 32.0005 28.0423 30.4107 26.4608Z" fill="white"/>
<path d="M28.8204 19.8269L31.8918 19.3025C31.4091 16.4808 30.0773 13.9255 28.0546 11.8945C25.9155 9.75533 23.2103 8.4069 20.2304 7.99072L19.7976 11.0788C22.1033 11.4034 24.2008 12.4439 25.8572 14.1003C27.422 15.6651 28.4459 17.6461 28.8204 19.8269Z" fill="white"/>
<path d="M33.6235 6.47578C30.0776 2.92992 25.5912 0.690861 20.6386 0L20.2058 3.08806C24.4842 3.68736 28.363 5.62677 31.4261 8.68154C34.331 11.5865 36.2371 15.2572 36.928 19.2942L39.9994 18.7698C39.192 14.0919 36.9862 9.84685 33.6235 6.47578Z" fill="white"/>
</svg>
