<svg width="19" height="21" viewBox="0 0 19 21" fill="none" xmlns="http://www.w3.org/2000/svg">
<path d="M5.2832 13.6134H16.2744C17.5207 13.6134 18.5374 12.5636 18.5374 11.2767V6.50175C18.5374 6.49752 18.5374 6.48905 18.5374 6.48482C18.5374 6.47212 18.5374 6.46365 18.5374 6.45095C18.5374 6.44249 18.5374 6.43402 18.5333 6.42555C18.5333 6.41709 18.5292 6.40439 18.5292 6.39592C18.5292 6.38745 18.5251 6.37899 18.5251 6.37052C18.521 6.36206 18.5211 6.35359 18.517 6.34089C18.5129 6.33242 18.5129 6.32396 18.5088 6.31549C18.5047 6.30702 18.5047 6.29856 18.5006 6.29009C18.4965 6.28163 18.4924 6.27316 18.4883 6.26046C18.4842 6.25199 18.4801 6.24353 18.476 6.23929C18.4719 6.23083 18.4678 6.22236 18.4637 6.2139C18.4596 6.20543 18.4555 6.2012 18.4514 6.19273C18.4473 6.18426 18.4391 6.1758 18.435 6.16733C18.4309 6.15886 18.4268 6.15463 18.4186 6.14617C18.4145 6.1377 18.4063 6.13347 18.4022 6.125C18.3981 6.11653 18.3899 6.1123 18.3858 6.10383C18.3817 6.09537 18.3735 6.09114 18.3694 6.0869C18.3612 6.07844 18.3571 6.0742 18.3489 6.06574C18.3407 6.0615 18.3366 6.05304 18.3284 6.0488C18.3202 6.04457 18.312 6.0361 18.3038 6.03187C18.2956 6.02764 18.2915 6.0234 18.2833 6.01917C18.2751 6.01494 18.2669 6.0107 18.2587 6.00224C18.2505 5.99801 18.2423 5.99377 18.2341 5.98954C18.2259 5.98531 18.2177 5.98107 18.2095 5.97684C18.2013 5.97261 18.1931 5.96837 18.1849 5.96414C18.1767 5.95991 18.1685 5.95991 18.1603 5.95567C18.1521 5.95144 18.1398 5.94721 18.1316 5.94721C18.1234 5.94721 18.1152 5.94298 18.1111 5.94298C18.0988 5.93874 18.0906 5.93874 18.0783 5.93874C18.0742 5.93874 18.0701 5.93451 18.0619 5.93451L4.13119 3.94916V1.94265C4.13119 1.92149 4.13119 1.90032 4.12709 1.88339C4.12709 1.87915 4.12709 1.87492 4.12299 1.86645C4.12299 1.85376 4.11889 1.84106 4.11889 1.82836C4.11479 1.81566 4.11479 1.80719 4.11069 1.79449C4.11069 1.78602 4.10659 1.78179 4.10659 1.77333C4.10249 1.76063 4.09839 1.74793 4.09429 1.73523C4.09429 1.73099 4.09019 1.72253 4.09019 1.71829C4.08609 1.7056 4.082 1.69713 4.0738 1.68443C4.0697 1.6802 4.0697 1.67173 4.0656 1.6675C4.0615 1.65903 4.0574 1.65056 4.0492 1.6421C4.0451 1.63363 4.041 1.6294 4.0369 1.62093C4.0328 1.61247 4.0287 1.60823 4.0246 1.59977C4.0205 1.5913 4.0123 1.58283 4.0082 1.57437C4.0041 1.57013 4 1.5659 3.9959 1.56167C3.9877 1.5532 3.9795 1.54474 3.9713 1.53627C3.9672 1.53204 3.9631 1.5278 3.959 1.52357C3.95081 1.5151 3.94261 1.50664 3.93031 1.49817C3.92621 1.49394 3.91801 1.4897 3.91391 1.48547C3.90571 1.47701 3.89751 1.47277 3.88931 1.46431C3.87701 1.45584 3.86471 1.44737 3.85651 1.44314C3.85241 1.43891 3.84831 1.43891 3.84421 1.43467C3.82782 1.42621 3.80732 1.41774 3.79092 1.40927L0.769458 0.0969996C0.48658 -0.0257617 0.162706 0.109699 0.0438153 0.401786C-0.0750753 0.693873 0.0561143 1.02829 0.338992 1.15105L3.02018 2.3194V4.91009V5.3207V8.47016V11.2852V14.841C3.02018 16.0263 3.88111 17.0084 4.99212 17.1566C4.79124 17.5037 4.67235 17.9101 4.67235 18.3419C4.67235 19.616 5.67677 20.6489 6.90667 20.6489C8.13657 20.6489 9.14099 19.6118 9.14099 18.3419C9.14099 17.9185 9.0303 17.5164 8.83352 17.1777H13.8105C13.6137 17.5206 13.503 17.9185 13.503 18.3419C13.503 19.616 14.5075 20.6489 15.7374 20.6489C16.9673 20.6489 17.9717 19.6118 17.9717 18.3419C17.9717 17.0719 16.9673 16.0348 15.7374 16.0348H5.2832C4.64365 16.0348 4.12709 15.4972 4.12709 14.841V13.2917C4.46326 13.4949 4.86093 13.6134 5.2832 13.6134ZM8.03818 18.3376C8.03818 18.9811 7.52982 19.5017 6.91077 19.5017C6.29172 19.5017 5.78336 18.9768 5.78336 18.3376C5.78336 17.6984 6.29172 17.1735 6.91077 17.1735C7.52982 17.1735 8.03818 17.6942 8.03818 18.3376ZM16.8689 18.3376C16.8689 18.9811 16.3605 19.5017 15.7415 19.5017C15.1224 19.5017 14.6141 18.9768 14.6141 18.3376C14.6141 17.6984 15.1224 17.1735 15.7415 17.1735C16.3605 17.1735 16.8689 17.6942 16.8689 18.3376ZM16.2744 12.4705H5.2832C4.64365 12.4705 4.12709 11.9329 4.12709 11.2767V8.4617V5.31224V5.10058L17.4305 6.99279V11.2725C17.4305 11.9371 16.9099 12.4705 16.2744 12.4705Z" fill="#585858"/>
</svg>
